<svg version="1.2" xmlns="http://www.w3.org/2000/svg" viewBox="0 0 40 31" width="40" height="31"><defs><linearGradient id="P" gradientUnits="userSpaceOnUse"/><linearGradient id="g1" x2="1" href="#P" gradientTransform="matrix(0,-16.209,16.144,0,10.109,14.991)"><stop stop-color="#ffef3f"/><stop offset="1" stop-color="#ffc001"/></linearGradient><linearGradient id="g2" x2="1" href="#P" gradientTransform="matrix(0,-12.34,19.144,0,21.574,21.565)"><stop stop-color="#fff" stop-opacity="1"/><stop offset="1" stop-color="#fff" stop-opacity=".76"/></linearGradient></defs><style>.a{fill:url(#g1)}.b{fill:url(#g2)}</style><path class="a" d="m18.4 11c0 3.4-2 6.4-5.1 7.7-3.1 1.3-6.7 0.6-9.1-1.8-2.3-2.4-3-5.9-1.8-9 1.3-3.1 4.4-5.2 7.7-5.2q1.7 0 3.2 0.7 1.5 0.6 2.7 1.8 1.2 1.1 1.8 2.7 0.6 1.5 0.6 3.1z"/><g style="opacity:.9"><path class="b" d="m19.2 5.9c-5.2 0-9.5 4.3-9.5 9.5v0.1c-2.7 0.6-4.7 3-4.7 5.8q0 1.2 0.4 2.3 0.5 1.1 1.3 1.9 0.9 0.9 1.9 1.3 1.1 0.5 2.3 0.5 0.2 0 0.4-0.1v0.1h19v-0.1c4.4-0.2 7.9-3.8 7.9-8.2 0-4.6-3.7-8.3-8.3-8.3q-1.2 0-2.3 0.3-0.6-1.2-1.5-2.1-0.9-1-2-1.6-1.1-0.7-2.3-1-1.3-0.4-2.6-0.4z"/></g></svg>